<?xml version="1.0" encoding="UTF-8" standalone="no"?><svg xmlns="http://www.w3.org/2000/svg" xmlns:xlink="http://www.w3.org/1999/xlink" clip-rule="evenodd" stroke-miterlimit="10" viewBox="0 0 1024 768"><desc>SVG generated by Keynote</desc><defs></defs><g transform="matrix(1.00, 0.00, -0.00, -1.00, 0.0, 768.0)"><path d="M 0.0 768.0 L 1024.0 768.0 L 1024.0 0.0 L 0.0 0.0 Z M 0.0 768.0 " fill="#FEFFFE"></path><text xml:space="preserve" font-family="HelveticaNeue,Helvetica Neue" font-size="80.0" fill="#4286DC" transform="matrix(1.00, 0.00, -0.00, -1.00, 282.4, 633.3)">P</text><text xml:space="preserve" font-family="HelveticaNeue,Helvetica Neue" font-size="80.0" fill="#4286DC" transform="matrix(1.00, 0.00, -0.00, -1.00, 334.2, 633.3)">e</text><text xml:space="preserve" font-family="HelveticaNeue,Helvetica Neue" font-size="80.0" fill="#4286DC" transform="matrix(1.00, 0.00, -0.00, -1.00, 377.2, 633.3)">r</text><text xml:space="preserve" font-family="HelveticaNeue,Helvetica Neue" font-size="80.0" fill="#4286DC" transform="matrix(1.00, 0.00, -0.00, -1.00, 403.8, 633.3)">f</text><text xml:space="preserve" font-family="HelveticaNeue,Helvetica Neue" font-size="80.0" fill="#4286DC" transform="matrix(1.00, 0.00, -0.00, -1.00, 427.5, 633.3)">o</text><text xml:space="preserve" font-family="HelveticaNeue,Helvetica Neue" font-size="80.0" fill="#4286DC" transform="matrix(1.00, 0.00, -0.00, -1.00, 473.4, 633.3)">r</text><text xml:space="preserve" font-family="HelveticaNeue,Helvetica Neue" font-size="80.0" fill="#4286DC" transform="matrix(1.00, 0.00, -0.00, -1.00, 500.0, 633.3)">m</text><text xml:space="preserve" font-family="HelveticaNeue,Helvetica Neue" font-size="80.0" fill="#4286DC" transform="matrix(1.00, 0.00, -0.00, -1.00, 568.3, 633.3)">a</text><text xml:space="preserve" font-family="HelveticaNeue,Helvetica Neue" font-size="80.0" fill="#4286DC" transform="matrix(1.00, 0.00, -0.00, -1.00, 611.2, 633.3)">n</text><text xml:space="preserve" font-family="HelveticaNeue,Helvetica Neue" font-size="80.0" fill="#4286DC" transform="matrix(1.00, 0.00, -0.00, -1.00, 655.7, 633.3)">c</text><text xml:space="preserve" font-family="HelveticaNeue,Helvetica Neue" font-size="80.0" fill="#4286DC" transform="matrix(1.00, 0.00, -0.00, -1.00, 698.7, 633.3)">e</text><text xml:space="preserve" font-family="HelveticaNeue,Helvetica Neue" font-size="19.2" fill="#FEFFFF" transform="matrix(1.00, 0.00, -0.00, -1.00, 19.0, 35.3)">D</text><text xml:space="preserve" font-family="HelveticaNeue,Helvetica Neue" font-size="19.2" fill="#FEFFFF" transform="matrix(1.00, 0.00, -0.00, -1.00, 32.5, 35.3)">a</text><text xml:space="preserve" font-family="HelveticaNeue,Helvetica Neue" font-size="19.2" fill="#FEFFFF" transform="matrix(1.00, 0.00, -0.00, -1.00, 42.8, 35.3)">n</text><text xml:space="preserve" font-family="HelveticaNeue,Helvetica Neue" font-size="19.2" fill="#FEFFFF" transform="matrix(1.00, 0.00, -0.00, -1.00, 53.5, 35.3)">i</text><text xml:space="preserve" font-family="HelveticaNeue,Helvetica Neue" font-size="19.2" fill="#FEFFFF" transform="matrix(1.00, 0.00, -0.00, -1.00, 57.8, 35.3)">e</text><text xml:space="preserve" font-family="HelveticaNeue,Helvetica Neue" font-size="19.2" fill="#FEFFFF" transform="matrix(1.00, 0.00, -0.00, -1.00, 68.1, 35.3)">l</text><text xml:space="preserve" font-family="HelveticaNeue,Helvetica Neue" font-size="19.2" fill="#FEFFFF" transform="matrix(1.00, 0.00, -0.00, -1.00, 72.3, 35.3)"> </text><text xml:space="preserve" font-family="HelveticaNeue,Helvetica Neue" font-size="19.2" fill="#FEFFFF" transform="matrix(1.00, 0.00, -0.00, -1.00, 77.7, 35.3)">B</text><text xml:space="preserve" font-family="HelveticaNeue,Helvetica Neue" font-size="19.2" fill="#FEFFFF" transform="matrix(1.00, 0.00, -0.00, -1.00, 90.8, 35.3)">l</text><text xml:space="preserve" font-family="HelveticaNeue,Helvetica Neue" font-size="19.2" fill="#FEFFFF" transform="matrix(1.00, 0.00, -0.00, -1.00, 95.1, 35.3)">a</text><text xml:space="preserve" font-family="HelveticaNeue,Helvetica Neue" font-size="19.2" fill="#FEFFFF" transform="matrix(1.00, 0.00, -0.00, -1.00, 105.4, 35.3)">z</text><text xml:space="preserve" font-family="HelveticaNeue,Helvetica Neue" font-size="19.2" fill="#FEFFFF" transform="matrix(1.00, 0.00, -0.00, -1.00, 114.6, 35.3)">e</text><text xml:space="preserve" font-family="HelveticaNeue,Helvetica Neue" font-size="19.2" fill="#FEFFFF" transform="matrix(1.00, 0.00, -0.00, -1.00, 124.9, 35.3)">v</text><text xml:space="preserve" font-family="HelveticaNeue,Helvetica Neue" font-size="19.2" fill="#FEFFFF" transform="matrix(1.00, 0.00, -0.00, -1.00, 134.5, 35.3)">s</text><text xml:space="preserve" font-family="HelveticaNeue,Helvetica Neue" font-size="19.2" fill="#FEFFFF" transform="matrix(1.00, 0.00, -0.00, -1.00, 144.1, 35.3)">k</text><text xml:space="preserve" font-family="HelveticaNeue,Helvetica Neue" font-size="19.2" fill="#FEFFFF" transform="matrix(1.00, 0.00, -0.00, -1.00, 154.1, 35.3)">i</text><path d="M -2.0 64.0 L 904.0 64.0 L 904.0 21.0 L -2.0 21.0 Z M -2.0 64.3 " fill="#4286DC"></path><g><clipPath id="clip0x6080010aa620"><path d="M 903.0 64.0 L 1023.0 64.0 L 1023.0 21.0 L 903.0 21.0 Z M 902.7 63.8 "></path></clipPath><g clip-path="url(#clip0x6080010aa620)"><image xlink:href="../../63FDE3F6-E1E4-4BEC-8BAE-FAEF5D63F8B5/assets/AA11D87778E0CF66586EA3691EB19FEB.png" width="371.00" height="136.00" transform="matrix(0.32, 0.00, -0.00, -0.32, 903.0, 64.0)"></image></g></g><g><clipPath id="clip0x608000ca2100"><path d="M 662.0 523.0 L 975.0 523.0 L 975.0 314.0 L 662.0 314.0 Z M 662.4 523.3 "></path></clipPath><g clip-path="url(#clip0x608000ca2100)"><image xlink:href="8E7843881245F72F6A27F294F72CF104.png" width="800.00" height="600.00" transform="matrix(0.39, 0.00, -0.00, -0.38, 662.0, 533.0)"></image></g></g><text xml:space="preserve" font-family="HelveticaNeue,Helvetica Neue" font-size="36.0" fill="#4286DC" transform="matrix(1.00, 0.00, -0.00, -1.00, 689.4, 566.2)">2</text><text xml:space="preserve" font-family="HelveticaNeue,Helvetica Neue" font-size="36.0" fill="#4286DC" transform="matrix(1.00, 0.00, -0.00, -1.00, 709.4, 566.2)">D</text><text xml:space="preserve" font-family="HelveticaNeue,Helvetica Neue" font-size="36.0" fill="#4286DC" transform="matrix(1.00, 0.00, -0.00, -1.00, 734.8, 566.2)"> </text><text xml:space="preserve" font-family="HelveticaNeue,Helvetica Neue" font-size="36.0" fill="#4286DC" transform="matrix(1.00, 0.00, -0.00, -1.00, 744.8, 566.2)">u</text><text xml:space="preserve" font-family="HelveticaNeue,Helvetica Neue" font-size="36.0" fill="#4286DC" transform="matrix(1.00, 0.00, -0.00, -1.00, 764.8, 566.2)">n</text><text xml:space="preserve" font-family="HelveticaNeue,Helvetica Neue" font-size="36.0" fill="#4286DC" transform="matrix(1.00, 0.00, -0.00, -1.00, 784.8, 566.2)">i</text><text xml:space="preserve" font-family="HelveticaNeue,Helvetica Neue" font-size="36.0" fill="#4286DC" transform="matrix(1.00, 0.00, -0.00, -1.00, 792.8, 566.2)">f</text><text xml:space="preserve" font-family="HelveticaNeue,Helvetica Neue" font-size="36.0" fill="#4286DC" transform="matrix(1.00, 0.00, -0.00, -1.00, 803.4, 566.2)">o</text><text xml:space="preserve" font-family="HelveticaNeue,Helvetica Neue" font-size="36.0" fill="#4286DC" transform="matrix(1.00, 0.00, -0.00, -1.00, 824.1, 566.2)">r</text><text xml:space="preserve" font-family="HelveticaNeue,Helvetica Neue" font-size="36.0" fill="#4286DC" transform="matrix(1.00, 0.00, -0.00, -1.00, 836.1, 566.2)">m</text><text xml:space="preserve" font-family="HelveticaNeue,Helvetica Neue" font-size="36.0" fill="#4286DC" transform="matrix(1.00, 0.00, -0.00, -1.00, 866.8, 566.2)"> </text><text xml:space="preserve" font-family="HelveticaNeue,Helvetica Neue" font-size="36.0" fill="#4286DC" transform="matrix(1.00, 0.00, -0.00, -1.00, 876.8, 566.2)">d</text><text xml:space="preserve" font-family="HelveticaNeue,Helvetica Neue" font-size="36.0" fill="#4286DC" transform="matrix(1.00, 0.00, -0.00, -1.00, 898.2, 566.2)">a</text><text xml:space="preserve" font-family="HelveticaNeue,Helvetica Neue" font-size="36.0" fill="#4286DC" transform="matrix(1.00, 0.00, -0.00, -1.00, 917.5, 566.2)">t</text><text xml:space="preserve" font-family="HelveticaNeue,Helvetica Neue" font-size="36.0" fill="#4286DC" transform="matrix(1.00, 0.00, -0.00, -1.00, 928.8, 566.2)">a</text><path d="M 126.7 285.7 L 661.7 285.7 " fill="none" stroke="#E2E2E2" stroke-width="1.00" transform="matrix(1.00, 0.00, 0.00, -1.00, 12.3, 613.2)"></path><path d="M 126.7 160.7 L 661.7 160.7 " fill="none" stroke="#E2E2E2" stroke-width="1.00" transform="matrix(1.00, 0.00, 0.00, -1.00, 12.3, 613.2)"></path><g><clipPath id="clip0x6000020a8700"><path d="M 12.3 202.3 L 12.3 578.0 L 65.1 578.0 L 65.1 202.3 Z M 12.3 202.3 "></path></clipPath><g clip-path="url(#clip0x6000020a8700)"><text xml:space="preserve" font-family="HelveticaNeue,Helvetica Neue" font-size="30.0" fill="#4286DC" transform="matrix(0.00, 1.00, 1.00, -0.00, 41.1, 231.8)">R</text><text xml:space="preserve" font-family="HelveticaNeue,Helvetica Neue" font-size="30.0" fill="#4286DC" transform="matrix(0.00, 1.00, 1.00, -0.00, 41.1, 252.4)">u</text><text xml:space="preserve" font-family="HelveticaNeue,Helvetica Neue" font-size="30.0" fill="#4286DC" transform="matrix(0.00, 1.00, 1.00, -0.00, 41.1, 269.0)">n</text><text xml:space="preserve" font-family="HelveticaNeue,Helvetica Neue" font-size="30.0" fill="#4286DC" transform="matrix(0.00, 1.00, 1.00, -0.00, 41.1, 285.7)">t</text><text xml:space="preserve" font-family="HelveticaNeue,Helvetica Neue" font-size="30.0" fill="#4286DC" transform="matrix(0.00, 1.00, 1.00, -0.00, 41.1, 295.2)">i</text><text xml:space="preserve" font-family="HelveticaNeue,Helvetica Neue" font-size="30.0" fill="#4286DC" transform="matrix(0.00, 1.00, 1.00, -0.00, 41.1, 301.8)">m</text><text xml:space="preserve" font-family="HelveticaNeue,Helvetica Neue" font-size="30.0" fill="#4286DC" transform="matrix(0.00, 1.00, 1.00, -0.00, 41.1, 327.4)">e</text><text xml:space="preserve" font-family="HelveticaNeue,Helvetica Neue" font-size="30.0" fill="#4286DC" transform="matrix(0.00, 1.00, 1.00, -0.00, 41.1, 343.5)"> </text><text xml:space="preserve" font-family="HelveticaNeue,Helvetica Neue" font-size="30.0" fill="#4286DC" transform="matrix(0.00, 1.00, 1.00, -0.00, 41.1, 351.9)">(</text><text xml:space="preserve" font-family="HelveticaNeue,Helvetica Neue" font-size="30.0" fill="#4286DC" transform="matrix(0.00, 1.00, 1.00, -0.00, 41.1, 359.6)">s</text><text xml:space="preserve" font-family="HelveticaNeue,Helvetica Neue" font-size="30.0" fill="#4286DC" transform="matrix(0.00, 1.00, 1.00, -0.00, 41.1, 374.6)">)</text><text xml:space="preserve" font-family="HelveticaNeue,Helvetica Neue" font-size="30.0" fill="#4286DC" transform="matrix(0.00, 1.00, 1.00, -0.00, 41.1, 382.4)"> </text><text xml:space="preserve" font-family="HelveticaNeue,Helvetica Neue" font-size="30.0" fill="#4286DC" transform="matrix(0.00, 1.00, 1.00, -0.00, 41.1, 390.8)">—</text><text xml:space="preserve" font-family="HelveticaNeue,Helvetica Neue" font-size="30.0" fill="#4286DC" transform="matrix(0.00, 1.00, 1.00, -0.00, 41.1, 420.8)"> </text><text xml:space="preserve" font-family="HelveticaNeue,Helvetica Neue" font-size="30.0" fill="#4286DC" transform="matrix(0.00, 1.00, 1.00, -0.00, 41.1, 429.1)">l</text><text xml:space="preserve" font-family="HelveticaNeue,Helvetica Neue" font-size="30.0" fill="#4286DC" transform="matrix(0.00, 1.00, 1.00, -0.00, 41.1, 435.8)">o</text><text xml:space="preserve" font-family="HelveticaNeue,Helvetica Neue" font-size="30.0" fill="#4286DC" transform="matrix(0.00, 1.00, 1.00, -0.00, 41.1, 453.0)">g</text><text xml:space="preserve" font-family="HelveticaNeue,Helvetica Neue" font-size="30.0" fill="#4286DC" transform="matrix(0.00, 1.00, 1.00, -0.00, 41.1, 470.2)"> </text><text xml:space="preserve" font-family="HelveticaNeue,Helvetica Neue" font-size="30.0" fill="#4286DC" transform="matrix(0.00, 1.00, 1.00, -0.00, 41.1, 478.5)">s</text><text xml:space="preserve" font-family="HelveticaNeue,Helvetica Neue" font-size="30.0" fill="#4286DC" transform="matrix(0.00, 1.00, 1.00, -0.00, 41.1, 493.5)">c</text><text xml:space="preserve" font-family="HelveticaNeue,Helvetica Neue" font-size="30.0" fill="#4286DC" transform="matrix(0.00, 1.00, 1.00, -0.00, 41.1, 509.6)">a</text><text xml:space="preserve" font-family="HelveticaNeue,Helvetica Neue" font-size="30.0" fill="#4286DC" transform="matrix(0.00, 1.00, 1.00, -0.00, 41.1, 525.8)">l</text><text xml:space="preserve" font-family="HelveticaNeue,Helvetica Neue" font-size="30.0" fill="#4286DC" transform="matrix(0.00, 1.00, 1.00, -0.00, 41.1, 532.4)">e</text></g></g><g><clipPath id="clip0x6000020a9180"><path d="M 97.4 183.8 L 117.1 183.8 L 117.1 220.9 L 97.4 220.9 Z M 97.4 183.8 "></path></clipPath><g clip-path="url(#clip0x6000020a9180)"><text xml:space="preserve" font-family="HelveticaNeue,Helvetica Neue" font-size="30.0" fill="#4286DC" transform="matrix(1.00, 0.00, -0.00, -1.00, 98.9, 191.1)">1</text></g></g><g><clipPath id="clip0x6000020a93c0"><path d="M 80.7 309.0 L 117.1 309.0 L 117.1 346.1 L 80.7 346.1 Z M 80.7 309.0 "></path></clipPath><g clip-path="url(#clip0x6000020a93c0)"><text xml:space="preserve" font-family="HelveticaNeue,Helvetica Neue" font-size="30.0" fill="#4286DC" transform="matrix(1.00, 0.00, -0.00, -1.00, 82.2, 316.4)">1</text><text xml:space="preserve" font-family="HelveticaNeue,Helvetica Neue" font-size="30.0" fill="#4286DC" transform="matrix(1.00, 0.00, -0.00, -1.00, 98.9, 316.4)">0</text></g></g><g><clipPath id="clip0x6000020a9660"><path d="M 64.1 434.2 L 117.1 434.2 L 117.1 471.4 L 64.1 471.4 Z M 64.1 434.2 "></path></clipPath><g clip-path="url(#clip0x6000020a9660)"><text xml:space="preserve" font-family="HelveticaNeue,Helvetica Neue" font-size="30.0" fill="#4286DC" transform="matrix(1.00, 0.00, -0.00, -1.00, 65.6, 441.6)">1</text><text xml:space="preserve" font-family="HelveticaNeue,Helvetica Neue" font-size="30.0" fill="#4286DC" transform="matrix(1.00, 0.00, -0.00, -1.00, 82.2, 441.6)">0</text><text xml:space="preserve" font-family="HelveticaNeue,Helvetica Neue" font-size="30.0" fill="#4286DC" transform="matrix(1.00, 0.00, -0.00, -1.00, 98.9, 441.6)">0</text></g></g><path d="M 126.2 410.7 L 662.2 410.7 " fill="none" stroke="#FEFFFE" stroke-width="1.00" stroke-linecap="square" transform="matrix(1.00, 0.00, 0.00, -1.00, 12.3, 613.2)"></path><g><clipPath id="clip0x6000020a9a20"><path d="M 138.6 98.5 L 674.3 98.5 L 674.3 151.2 L 138.6 151.2 Z M 138.6 98.5 "></path></clipPath><g clip-path="url(#clip0x6000020a9a20)"><text xml:space="preserve" font-family="HelveticaNeue,Helvetica Neue" font-size="30.0" fill="#4286DC" transform="matrix(1.00, 0.00, -0.00, -1.00, 139.6, 104.8)">T</text><text xml:space="preserve" font-family="HelveticaNeue,Helvetica Neue" font-size="30.0" fill="#4286DC" transform="matrix(1.00, 0.00, -0.00, -1.00, 153.5, 104.8)">o</text><text xml:space="preserve" font-family="HelveticaNeue,Helvetica Neue" font-size="30.0" fill="#4286DC" transform="matrix(1.00, 0.00, -0.00, -1.00, 170.7, 104.8)">t</text><text xml:space="preserve" font-family="HelveticaNeue,Helvetica Neue" font-size="30.0" fill="#4286DC" transform="matrix(1.00, 0.00, -0.00, -1.00, 180.2, 104.8)">a</text><text xml:space="preserve" font-family="HelveticaNeue,Helvetica Neue" font-size="30.0" fill="#4286DC" transform="matrix(1.00, 0.00, -0.00, -1.00, 196.3, 104.8)">l</text><text xml:space="preserve" font-family="HelveticaNeue,Helvetica Neue" font-size="30.0" fill="#4286DC" transform="matrix(1.00, 0.00, -0.00, -1.00, 202.9, 104.8)"> </text><text xml:space="preserve" font-family="HelveticaNeue,Helvetica Neue" font-size="30.0" fill="#4286DC" transform="matrix(1.00, 0.00, -0.00, -1.00, 211.3, 104.8)">n</text><text xml:space="preserve" font-family="HelveticaNeue,Helvetica Neue" font-size="30.0" fill="#4286DC" transform="matrix(1.00, 0.00, -0.00, -1.00, 227.9, 104.8)">u</text><text xml:space="preserve" font-family="HelveticaNeue,Helvetica Neue" font-size="30.0" fill="#4286DC" transform="matrix(1.00, 0.00, -0.00, -1.00, 244.6, 104.8)">m</text><text xml:space="preserve" font-family="HelveticaNeue,Helvetica Neue" font-size="30.0" fill="#4286DC" transform="matrix(1.00, 0.00, -0.00, -1.00, 270.2, 104.8)">b</text><text xml:space="preserve" font-family="HelveticaNeue,Helvetica Neue" font-size="30.0" fill="#4286DC" transform="matrix(1.00, 0.00, -0.00, -1.00, 288.0, 104.8)">e</text><text xml:space="preserve" font-family="HelveticaNeue,Helvetica Neue" font-size="30.0" fill="#4286DC" transform="matrix(1.00, 0.00, -0.00, -1.00, 304.1, 104.8)">r</text><text xml:space="preserve" font-family="HelveticaNeue,Helvetica Neue" font-size="30.0" fill="#4286DC" transform="matrix(1.00, 0.00, -0.00, -1.00, 314.1, 104.8)"> </text><text xml:space="preserve" font-family="HelveticaNeue,Helvetica Neue" font-size="30.0" fill="#4286DC" transform="matrix(1.00, 0.00, -0.00, -1.00, 322.4, 104.8)">o</text><text xml:space="preserve" font-family="HelveticaNeue,Helvetica Neue" font-size="30.0" fill="#4286DC" transform="matrix(1.00, 0.00, -0.00, -1.00, 339.7, 104.8)">f</text><text xml:space="preserve" font-family="HelveticaNeue,Helvetica Neue" font-size="30.0" fill="#4286DC" transform="matrix(1.00, 0.00, -0.00, -1.00, 348.5, 104.8)"> </text><text xml:space="preserve" font-family="HelveticaNeue,Helvetica Neue" font-size="30.0" fill="#4286DC" transform="matrix(1.00, 0.00, -0.00, -1.00, 356.9, 104.8)">p</text><text xml:space="preserve" font-family="HelveticaNeue,Helvetica Neue" font-size="30.0" fill="#4286DC" transform="matrix(1.00, 0.00, -0.00, -1.00, 374.7, 104.8)">o</text><text xml:space="preserve" font-family="HelveticaNeue,Helvetica Neue" font-size="30.0" fill="#4286DC" transform="matrix(1.00, 0.00, -0.00, -1.00, 391.9, 104.8)">i</text><text xml:space="preserve" font-family="HelveticaNeue,Helvetica Neue" font-size="30.0" fill="#4286DC" transform="matrix(1.00, 0.00, -0.00, -1.00, 398.6, 104.8)">n</text><text xml:space="preserve" font-family="HelveticaNeue,Helvetica Neue" font-size="30.0" fill="#4286DC" transform="matrix(1.00, 0.00, -0.00, -1.00, 415.2, 104.8)">t</text><text xml:space="preserve" font-family="HelveticaNeue,Helvetica Neue" font-size="30.0" fill="#4286DC" transform="matrix(1.00, 0.00, -0.00, -1.00, 424.7, 104.8)">s</text><text xml:space="preserve" font-family="HelveticaNeue,Helvetica Neue" font-size="30.0" fill="#4286DC" transform="matrix(1.00, 0.00, -0.00, -1.00, 439.7, 104.8)">:</text><text xml:space="preserve" font-family="HelveticaNeue,Helvetica Neue" font-size="30.0" fill="#4286DC" transform="matrix(1.00, 0.00, -0.00, -1.00, 448.0, 104.8)"> </text><text xml:space="preserve" font-family="HelveticaNeue,Helvetica Neue" font-size="30.0" fill="#4286DC" transform="matrix(1.00, 0.00, -0.00, -1.00, 456.4, 104.8)">N</text><text xml:space="preserve" font-family="HelveticaNeue,Helvetica Neue" font-size="30.0" fill="#4286DC" transform="matrix(1.00, 0.00, -0.00, -1.00, 478.0, 104.8)">_</text><text xml:space="preserve" font-family="HelveticaNeue,Helvetica Neue" font-size="30.0" fill="#4286DC" transform="matrix(1.00, 0.00, -0.00, -1.00, 493.0, 104.8)">t</text><text xml:space="preserve" font-family="HelveticaNeue,Helvetica Neue" font-size="30.0" fill="#4286DC" transform="matrix(1.00, 0.00, -0.00, -1.00, 502.5, 104.8)">e</text><text xml:space="preserve" font-family="HelveticaNeue,Helvetica Neue" font-size="30.0" fill="#4286DC" transform="matrix(1.00, 0.00, -0.00, -1.00, 518.6, 104.8)">s</text><text xml:space="preserve" font-family="HelveticaNeue,Helvetica Neue" font-size="30.0" fill="#4286DC" transform="matrix(1.00, 0.00, -0.00, -1.00, 533.6, 104.8)">t</text><text xml:space="preserve" font-family="HelveticaNeue,Helvetica Neue" font-size="30.0" fill="#4286DC" transform="matrix(1.00, 0.00, -0.00, -1.00, 543.0, 104.8)"> </text><text xml:space="preserve" font-family="HelveticaNeue,Helvetica Neue" font-size="30.0" fill="#4286DC" transform="matrix(1.00, 0.00, -0.00, -1.00, 551.4, 104.8)">=</text><text xml:space="preserve" font-family="HelveticaNeue,Helvetica Neue" font-size="30.0" fill="#4286DC" transform="matrix(1.00, 0.00, -0.00, -1.00, 569.4, 104.8)"> </text><text xml:space="preserve" font-family="HelveticaNeue,Helvetica Neue" font-size="30.0" fill="#4286DC" transform="matrix(1.00, 0.00, -0.00, -1.00, 577.7, 104.8)">N</text><text xml:space="preserve" font-family="HelveticaNeue,Helvetica Neue" font-size="30.0" fill="#4286DC" transform="matrix(1.00, 0.00, -0.00, -1.00, 599.4, 104.8)">_</text><text xml:space="preserve" font-family="HelveticaNeue,Helvetica Neue" font-size="30.0" fill="#4286DC" transform="matrix(1.00, 0.00, -0.00, -1.00, 614.4, 104.8)">t</text><text xml:space="preserve" font-family="HelveticaNeue,Helvetica Neue" font-size="30.0" fill="#4286DC" transform="matrix(1.00, 0.00, -0.00, -1.00, 623.8, 104.8)">r</text><text xml:space="preserve" font-family="HelveticaNeue,Helvetica Neue" font-size="30.0" fill="#4286DC" transform="matrix(1.00, 0.00, -0.00, -1.00, 633.8, 104.8)">a</text><text xml:space="preserve" font-family="HelveticaNeue,Helvetica Neue" font-size="30.0" fill="#4286DC" transform="matrix(1.00, 0.00, -0.00, -1.00, 649.9, 104.8)">i</text><text xml:space="preserve" font-family="HelveticaNeue,Helvetica Neue" font-size="30.0" fill="#4286DC" transform="matrix(1.00, 0.00, -0.00, -1.00, 656.6, 104.8)">n</text></g></g><g><clipPath id="clip0x6000020aab00"><path d="M 201.9 150.2 L 253.8 150.2 L 253.8 187.4 L 201.9 187.4 Z M 201.9 150.2 "></path></clipPath><g clip-path="url(#clip0x6000020aab00)"><text xml:space="preserve" font-family="HelveticaNeue,Helvetica Neue" font-size="30.0" fill="#4286DC" transform="matrix(1.00, 0.00, -0.00, -1.00, 203.4, 157.6)">4</text><text xml:space="preserve" font-family="HelveticaNeue,Helvetica Neue" font-size="30.0" fill="#4286DC" transform="matrix(1.00, 0.00, -0.00, -1.00, 220.1, 157.6)">0</text><text xml:space="preserve" font-family="HelveticaNeue,Helvetica Neue" font-size="30.0" fill="#4286DC" transform="matrix(1.00, 0.00, -0.00, -1.00, 236.8, 157.6)">k</text></g></g><g><clipPath id="clip0x6000020aae00"><path d="M 380.5 150.2 L 432.4 150.2 L 432.4 187.4 L 380.5 187.4 Z M 380.5 150.2 "></path></clipPath><g clip-path="url(#clip0x6000020aae00)"><text xml:space="preserve" font-family="HelveticaNeue,Helvetica Neue" font-size="30.0" fill="#4286DC" transform="matrix(1.00, 0.00, -0.00, -1.00, 382.0, 157.6)">8</text><text xml:space="preserve" font-family="HelveticaNeue,Helvetica Neue" font-size="30.0" fill="#4286DC" transform="matrix(1.00, 0.00, -0.00, -1.00, 398.6, 157.6)">0</text><text xml:space="preserve" font-family="HelveticaNeue,Helvetica Neue" font-size="30.0" fill="#4286DC" transform="matrix(1.00, 0.00, -0.00, -1.00, 415.3, 157.6)">k</text></g></g><g><clipPath id="clip0x6000020ab100"><path d="M 559.0 150.2 L 611.0 150.2 L 611.0 187.4 L 559.0 187.4 Z M 559.0 150.2 "></path></clipPath><g clip-path="url(#clip0x6000020ab100)"><text xml:space="preserve" font-family="HelveticaNeue,Helvetica Neue" font-size="30.0" fill="#4286DC" transform="matrix(1.00, 0.00, -0.00, -1.00, 560.5, 157.6)">8</text><text xml:space="preserve" font-family="HelveticaNeue,Helvetica Neue" font-size="30.0" fill="#4286DC" transform="matrix(1.00, 0.00, -0.00, -1.00, 577.2, 157.6)">0</text><text xml:space="preserve" font-family="HelveticaNeue,Helvetica Neue" font-size="30.0" fill="#4286DC" transform="matrix(1.00, 0.00, -0.00, -1.00, 593.9, 157.6)">k</text></g></g><image xlink:href="8B103DD2AAEA2925F1C6875E922C2D03.png" width="80.00" height="83.00" transform="matrix(1.00, 0.00, -0.00, -1.00, 227.0, 280.0)"></image><g><g><clipPath id="clip0x6000020ab2e0"><path d="M 231.0 278.0 L 303.0 278.0 L 303.0 203.0 L 231.0 203.0 Z M 231.0 278.0 "></path></clipPath><g clip-path="url(#clip0x6000020ab2e0)"><g><clipPath id="clip0x6000020ab640"><path d="M 223.0 202.3 L 311.0 202.3 L 311.0 286.0 L 223.0 286.0 Z M 223.0 202.3 "></path></clipPath><g clip-path="url(#clip0x6000020ab640)"><image xlink:href="C7414E10450D3479A780546B54F744CA.jpeg" width="800.00" height="800.00" transform="matrix(0.50, 0.00, -0.00, -0.50, 231.0, 278.0)"></image></g></g></g></g></g><image xlink:href="6C57ECB8F02739B8C0561508CEC90FC7.png" width="79.00" height="105.00" transform="matrix(1.00, 0.00, -0.00, -1.00, 406.0, 302.0)"></image><g><g><clipPath id="clip0x6080012ac900"><path d="M 410.0 300.0 L 481.0 300.0 L 481.0 203.0 L 410.0 203.0 Z M 410.0 300.0 "></path></clipPath><g clip-path="url(#clip0x6080012ac900)"><g><clipPath id="clip0x608000ebb0c0"><path d="M 402.0 202.3 L 489.0 202.3 L 489.0 308.0 L 402.0 308.0 Z M 402.0 202.3 "></path></clipPath><g clip-path="url(#clip0x608000ebb0c0)"><image xlink:href="../../764EAF02-E76C-4D95-B637-4963F6F9A2C3/assets/C7414E10450D3479A780546B54F744CA.jpeg" width="800.00" height="800.00" transform="matrix(0.50, 0.00, -0.00, -0.50, 410.0, 300.0)"></image></g></g></g></g></g><image xlink:href="8A746DF2A0FC0218A741FC831EFCCF8A.png" width="79.00" height="147.00" transform="matrix(1.00, 0.00, -0.00, -1.00, 585.0, 344.0)"></image><g><g><clipPath id="clip0x6000020ab820"><path d="M 589.0 342.0 L 660.0 342.0 L 660.0 203.0 L 589.0 203.0 Z M 589.0 342.0 "></path></clipPath><g clip-path="url(#clip0x6000020ab820)"><g><clipPath id="clip0x6000020abd60"><path d="M 581.0 202.3 L 668.0 202.3 L 668.0 350.0 L 581.0 350.0 Z M 581.0 202.3 "></path></clipPath><g clip-path="url(#clip0x6000020abd60)"><image xlink:href="../../764EAF02-E76C-4D95-B637-4963F6F9A2C3/assets/C7414E10450D3479A780546B54F744CA.jpeg" width="800.00" height="800.00" transform="matrix(0.50, 0.00, -0.00, -0.50, 589.0, 342.0)"></image></g></g></g></g></g><image xlink:href="7996758AABEA3C8283B5D274420FDBC6.png" width="79.00" height="222.00" transform="matrix(1.00, 0.00, -0.00, -1.00, 149.0, 419.0)"></image><g><g><clipPath id="clip0x608000cb5f00"><path d="M 153.0 417.0 L 224.0 417.0 L 224.0 203.0 L 153.0 203.0 Z M 153.0 417.0 "></path></clipPath><g clip-path="url(#clip0x608000cb5f00)"><g><clipPath id="clip0x6080012a14a0"><path d="M 145.0 202.3 L 232.0 202.3 L 232.0 425.0 L 145.0 425.0 Z M 145.0 202.3 "></path></clipPath><g clip-path="url(#clip0x6080012a14a0)"><image xlink:href="3003F37F2E05287850CA73037CD6EE72.jpeg" width="800.00" height="800.00" transform="matrix(0.50, 0.00, -0.00, -0.50, 153.0, 417.0)"></image></g></g></g></g></g><image xlink:href="2D331E8B1C0FEFDCA23BC1916087DA60.png" width="80.00" height="295.00" transform="matrix(1.00, 0.00, -0.00, -1.00, 327.0, 492.0)"></image><g><g><clipPath id="clip0x6000020abfa0"><path d="M 331.0 490.0 L 403.0 490.0 L 403.0 203.0 L 331.0 203.0 Z M 331.0 490.0 "></path></clipPath><g clip-path="url(#clip0x6000020abfa0)"><g><clipPath id="clip0x6000020abe20"><path d="M 323.0 202.3 L 411.0 202.3 L 411.0 498.0 L 323.0 498.0 Z M 323.0 202.3 "></path></clipPath><g clip-path="url(#clip0x6000020abe20)"><image xlink:href="../../764EAF02-E76C-4D95-B637-4963F6F9A2C3/assets/3003F37F2E05287850CA73037CD6EE72.jpeg" width="800.00" height="800.00" transform="matrix(0.50, 0.00, -0.00, -0.50, 331.0, 490.0)"></image></g></g></g></g></g><image xlink:href="65D848BAAD81CD1D18AB80CA2CE76B99.png" width="79.00" height="370.00" transform="matrix(1.00, 0.00, -0.00, -1.00, 506.0, 567.0)"></image><g><g><clipPath id="clip0x6000020ac300"><path d="M 510.0 565.0 L 581.0 565.0 L 581.0 203.0 L 510.0 203.0 Z M 510.0 565.0 "></path></clipPath><g clip-path="url(#clip0x6000020ac300)"><g><clipPath id="clip0x6000020ac360"><path d="M 502.0 202.3 L 589.0 202.3 L 589.0 573.0 L 502.0 573.0 Z M 502.0 202.3 "></path></clipPath><g clip-path="url(#clip0x6000020ac360)"><image xlink:href="../../764EAF02-E76C-4D95-B637-4963F6F9A2C3/assets/3003F37F2E05287850CA73037CD6EE72.jpeg" width="800.00" height="800.00" transform="matrix(0.50, 0.00, -0.00, -0.50, 510.0, 565.0)"></image></g></g></g></g></g><g><clipPath id="clip0x6000020ac240"><path d="M 152.0 602.0 L 181.0 602.0 L 181.0 574.0 L 152.0 574.0 Z M 152.0 602.0 "></path></clipPath><g clip-path="url(#clip0x6000020ac240)"><image xlink:href="../../764EAF02-E76C-4D95-B637-4963F6F9A2C3/assets/3003F37F2E05287850CA73037CD6EE72.jpeg" width="800.00" height="800.00" transform="matrix(0.50, 0.00, -0.00, -0.50, 152.0, 602.0)"></image></g></g><text xml:space="preserve" font-family="HelveticaNeue,Helvetica Neue" font-size="30.0" fill="#4286DC" transform="matrix(1.00, 0.00, -0.00, -1.00, 198.5, 576.9)">B</text><text xml:space="preserve" font-family="HelveticaNeue,Helvetica Neue" font-size="30.0" fill="#4286DC" transform="matrix(1.00, 0.00, -0.00, -1.00, 219.1, 576.9)">r</text><text xml:space="preserve" font-family="HelveticaNeue,Helvetica Neue" font-size="30.0" fill="#4286DC" transform="matrix(1.00, 0.00, -0.00, -1.00, 229.1, 576.9)">u</text><text xml:space="preserve" font-family="HelveticaNeue,Helvetica Neue" font-size="30.0" fill="#4286DC" transform="matrix(1.00, 0.00, -0.00, -1.00, 245.8, 576.9)">t</text><text xml:space="preserve" font-family="HelveticaNeue,Helvetica Neue" font-size="30.0" fill="#4286DC" transform="matrix(1.00, 0.00, -0.00, -1.00, 255.2, 576.9)">e</text><text xml:space="preserve" font-family="HelveticaNeue,Helvetica Neue" font-size="30.0" fill="#4286DC" transform="matrix(1.00, 0.00, -0.00, -1.00, 271.3, 576.9)">-</text><text xml:space="preserve" font-family="HelveticaNeue,Helvetica Neue" font-size="30.0" fill="#4286DC" transform="matrix(1.00, 0.00, -0.00, -1.00, 283.0, 576.9)">f</text><text xml:space="preserve" font-family="HelveticaNeue,Helvetica Neue" font-size="30.0" fill="#4286DC" transform="matrix(1.00, 0.00, -0.00, -1.00, 291.9, 576.9)">o</text><text xml:space="preserve" font-family="HelveticaNeue,Helvetica Neue" font-size="30.0" fill="#4286DC" transform="matrix(1.00, 0.00, -0.00, -1.00, 309.1, 576.9)">r</text><text xml:space="preserve" font-family="HelveticaNeue,Helvetica Neue" font-size="30.0" fill="#4286DC" transform="matrix(1.00, 0.00, -0.00, -1.00, 318.5, 576.9)">c</text><text xml:space="preserve" font-family="HelveticaNeue,Helvetica Neue" font-size="30.0" fill="#4286DC" transform="matrix(1.00, 0.00, -0.00, -1.00, 334.6, 576.9)">e</text><g><clipPath id="clip0x608000cb0080"><path d="M 409.0 602.0 L 437.0 602.0 L 437.0 574.0 L 409.0 574.0 Z M 409.0 602.0 "></path></clipPath><g clip-path="url(#clip0x608000cb0080)"><image xlink:href="../../764EAF02-E76C-4D95-B637-4963F6F9A2C3/assets/C7414E10450D3479A780546B54F744CA.jpeg" width="800.00" height="800.00" transform="matrix(0.50, 0.00, -0.00, -0.50, 409.0, 602.0)"></image></g></g><text xml:space="preserve" font-family="HelveticaNeue,Helvetica Neue" font-size="30.0" fill="#4286DC" transform="matrix(1.00, 0.00, -0.00, -1.00, 455.0, 576.9)">Q</text><text xml:space="preserve" font-family="HelveticaNeue,Helvetica Neue" font-size="30.0" fill="#4286DC" transform="matrix(1.00, 0.00, -0.00, -1.00, 477.8, 576.9)">u</text><text xml:space="preserve" font-family="HelveticaNeue,Helvetica Neue" font-size="30.0" fill="#4286DC" transform="matrix(1.00, 0.00, -0.00, -1.00, 494.5, 576.9)">a</text><text xml:space="preserve" font-family="HelveticaNeue,Helvetica Neue" font-size="30.0" fill="#4286DC" transform="matrix(1.00, 0.00, -0.00, -1.00, 510.6, 576.9)">d</text><text xml:space="preserve" font-family="HelveticaNeue,Helvetica Neue" font-size="30.0" fill="#4286DC" transform="matrix(1.00, 0.00, -0.00, -1.00, 528.4, 576.9)">t</text><text xml:space="preserve" font-family="HelveticaNeue,Helvetica Neue" font-size="30.0" fill="#4286DC" transform="matrix(1.00, 0.00, -0.00, -1.00, 537.9, 576.9)">r</text><text xml:space="preserve" font-family="HelveticaNeue,Helvetica Neue" font-size="30.0" fill="#4286DC" transform="matrix(1.00, 0.00, -0.00, -1.00, 547.3, 576.9)">e</text><text xml:space="preserve" font-family="HelveticaNeue,Helvetica Neue" font-size="30.0" fill="#4286DC" transform="matrix(1.00, 0.00, -0.00, -1.00, 563.4, 576.9)">e</text><text xml:space="preserve" font-family="HelveticaNeue,Helvetica Neue" font-size="19.2" fill="#FEFFFF" transform="matrix(1.00, 0.00, -0.00, -1.00, 19.0, 35.3)">D</text><text xml:space="preserve" font-family="HelveticaNeue,Helvetica Neue" font-size="19.2" fill="#FEFFFF" transform="matrix(1.00, 0.00, -0.00, -1.00, 32.5, 35.3)">a</text><text xml:space="preserve" font-family="HelveticaNeue,Helvetica Neue" font-size="19.2" fill="#FEFFFF" transform="matrix(1.00, 0.00, -0.00, -1.00, 42.8, 35.3)">n</text><text xml:space="preserve" font-family="HelveticaNeue,Helvetica Neue" font-size="19.2" fill="#FEFFFF" transform="matrix(1.00, 0.00, -0.00, -1.00, 53.5, 35.3)">i</text><text xml:space="preserve" font-family="HelveticaNeue,Helvetica Neue" font-size="19.2" fill="#FEFFFF" transform="matrix(1.00, 0.00, -0.00, -1.00, 57.8, 35.3)">e</text><text xml:space="preserve" font-family="HelveticaNeue,Helvetica Neue" font-size="19.2" fill="#FEFFFF" transform="matrix(1.00, 0.00, -0.00, -1.00, 68.1, 35.3)">l</text><text xml:space="preserve" font-family="HelveticaNeue,Helvetica Neue" font-size="19.2" fill="#FEFFFF" transform="matrix(1.00, 0.00, -0.00, -1.00, 72.3, 35.3)"> </text><text xml:space="preserve" font-family="HelveticaNeue,Helvetica Neue" font-size="19.2" fill="#FEFFFF" transform="matrix(1.00, 0.00, -0.00, -1.00, 77.7, 35.3)">B</text><text xml:space="preserve" font-family="HelveticaNeue,Helvetica Neue" font-size="19.2" fill="#FEFFFF" transform="matrix(1.00, 0.00, -0.00, -1.00, 90.8, 35.3)">l</text><text xml:space="preserve" font-family="HelveticaNeue,Helvetica Neue" font-size="19.2" fill="#FEFFFF" transform="matrix(1.00, 0.00, -0.00, -1.00, 95.1, 35.3)">a</text><text xml:space="preserve" font-family="HelveticaNeue,Helvetica Neue" font-size="19.2" fill="#FEFFFF" transform="matrix(1.00, 0.00, -0.00, -1.00, 105.4, 35.3)">z</text><text xml:space="preserve" font-family="HelveticaNeue,Helvetica Neue" font-size="19.2" fill="#FEFFFF" transform="matrix(1.00, 0.00, -0.00, -1.00, 114.6, 35.3)">e</text><text xml:space="preserve" font-family="HelveticaNeue,Helvetica Neue" font-size="19.2" fill="#FEFFFF" transform="matrix(1.00, 0.00, -0.00, -1.00, 124.9, 35.3)">v</text><text xml:space="preserve" font-family="HelveticaNeue,Helvetica Neue" font-size="19.2" fill="#FEFFFF" transform="matrix(1.00, 0.00, -0.00, -1.00, 134.5, 35.3)">s</text><text xml:space="preserve" font-family="HelveticaNeue,Helvetica Neue" font-size="19.2" fill="#FEFFFF" transform="matrix(1.00, 0.00, -0.00, -1.00, 144.1, 35.3)">k</text><text xml:space="preserve" font-family="HelveticaNeue,Helvetica Neue" font-size="19.2" fill="#FEFFFF" transform="matrix(1.00, 0.00, -0.00, -1.00, 154.1, 35.3)">i</text></g></svg>