<?xml version="1.0" encoding="UTF-8" standalone="no"?><svg xmlns="http://www.w3.org/2000/svg" xmlns:xlink="http://www.w3.org/1999/xlink" clip-rule="evenodd" stroke-miterlimit="10" viewBox="0 0 330 36"><desc>SVG generated by Keynote</desc><defs></defs><g transform="matrix(1.00, 0.00, -0.00, -1.00, 0.0, 36.0)"><text xml:space="preserve" font-family="HelveticaNeue,Helvetica Neue" font-size="46.0" fill="#FEFFFF" transform="matrix(1.00, 0.00, -0.00, -1.00, -1.9, 2.1)">D</text><text xml:space="preserve" font-family="HelveticaNeue,Helvetica Neue" font-size="46.0" fill="#FEFFFF" transform="matrix(1.00, 0.00, -0.00, -1.00, 30.4, 2.1)">a</text><text xml:space="preserve" font-family="HelveticaNeue,Helvetica Neue" font-size="46.0" fill="#FEFFFF" transform="matrix(1.00, 0.00, -0.00, -1.00, 55.2, 2.1)">n</text><text xml:space="preserve" font-family="HelveticaNeue,Helvetica Neue" font-size="46.0" fill="#FEFFFF" transform="matrix(1.00, 0.00, -0.00, -1.00, 80.7, 2.1)">i</text><text xml:space="preserve" font-family="HelveticaNeue,Helvetica Neue" font-size="46.0" fill="#FEFFFF" transform="matrix(1.00, 0.00, -0.00, -1.00, 90.9, 2.1)">e</text><text xml:space="preserve" font-family="HelveticaNeue,Helvetica Neue" font-size="46.0" fill="#FEFFFF" transform="matrix(1.00, 0.00, -0.00, -1.00, 115.6, 2.1)">l</text><text xml:space="preserve" font-family="HelveticaNeue,Helvetica Neue" font-size="46.0" fill="#FEFFFF" transform="matrix(1.00, 0.00, -0.00, -1.00, 125.9, 2.1)"> </text><text xml:space="preserve" font-family="HelveticaNeue,Helvetica Neue" font-size="46.0" fill="#FEFFFF" transform="matrix(1.00, 0.00, -0.00, -1.00, 138.6, 2.1)">B</text><text xml:space="preserve" font-family="HelveticaNeue,Helvetica Neue" font-size="46.0" fill="#FEFFFF" transform="matrix(1.00, 0.00, -0.00, -1.00, 170.2, 2.1)">l</text><text xml:space="preserve" font-family="HelveticaNeue,Helvetica Neue" font-size="46.0" fill="#FEFFFF" transform="matrix(1.00, 0.00, -0.00, -1.00, 180.4, 2.1)">a</text><text xml:space="preserve" font-family="HelveticaNeue,Helvetica Neue" font-size="46.0" fill="#FEFFFF" transform="matrix(1.00, 0.00, -0.00, -1.00, 205.1, 2.1)">z</text><text xml:space="preserve" font-family="HelveticaNeue,Helvetica Neue" font-size="46.0" fill="#FEFFFF" transform="matrix(1.00, 0.00, -0.00, -1.00, 227.1, 2.1)">e</text><text xml:space="preserve" font-family="HelveticaNeue,Helvetica Neue" font-size="46.0" fill="#FEFFFF" transform="matrix(1.00, 0.00, -0.00, -1.00, 251.8, 2.1)">v</text><text xml:space="preserve" font-family="HelveticaNeue,Helvetica Neue" font-size="46.0" fill="#FEFFFF" transform="matrix(1.00, 0.00, -0.00, -1.00, 274.8, 2.1)">s</text><text xml:space="preserve" font-family="HelveticaNeue,Helvetica Neue" font-size="46.0" fill="#FEFFFF" transform="matrix(1.00, 0.00, -0.00, -1.00, 297.8, 2.1)">k</text><text xml:space="preserve" font-family="HelveticaNeue,Helvetica Neue" font-size="46.0" fill="#FEFFFF" transform="matrix(1.00, 0.00, -0.00, -1.00, 321.7, 2.1)">i</text></g></svg>