<?xml version="1.0" encoding="UTF-8" standalone="no"?><svg xmlns="http://www.w3.org/2000/svg" xmlns:xlink="http://www.w3.org/1999/xlink" clip-rule="evenodd" stroke-miterlimit="10" viewBox="0 0 1024 768"><desc>SVG generated by Keynote</desc><defs></defs><g transform="matrix(1.00, 0.00, -0.00, -1.00, 0.0, 768.0)"><path d="M 0.0 768.0 L 1024.0 768.0 L 1024.0 0.0 L 0.0 0.0 Z M 0.0 768.0 " fill="#FEFFFE"></path><path d="M -2.0 64.0 L 905.0 64.0 L 905.0 21.0 L -2.0 21.0 Z M -2.0 64.3 " fill="#4286DC"></path><g><clipPath id="clip0x608000ea7b60"><path d="M 529.0 564.0 L 949.0 564.0 L 949.0 69.0 L 529.0 69.0 Z M 529.0 564.0 "></path></clipPath><g clip-path="url(#clip0x608000ea7b60)"><image xlink:href="../../9CDBBDA1-499C-459E-AE75-5796AFABE300/assets/5004A2A056065C620EF816228450B60D.jpeg" width="2304.00" height="1536.00" transform="matrix(0.35, 0.00, -0.00, -0.35, 352.0, 608.0)"></image></g></g><text xml:space="preserve" font-family="HelveticaNeue,Helvetica Neue" font-size="80.0" fill="#4286DC" transform="matrix(1.00, 0.00, -0.00, -1.00, 433.5, 633.3)">k</text><text xml:space="preserve" font-family="HelveticaNeue,Helvetica Neue" font-size="80.0" fill="#4286DC" transform="matrix(1.00, 0.00, -0.00, -1.00, 475.0, 633.3)">N</text><text xml:space="preserve" font-family="HelveticaNeue,Helvetica Neue" font-size="80.0" fill="#4286DC" transform="matrix(1.00, 0.00, -0.00, -1.00, 532.8, 633.3)">N</text><g><clipPath id="clip0x600001cb1760"><path d="M 528.0 563.0 L 950.0 563.0 L 950.0 66.0 L 528.0 66.0 Z M 528.1 563.3 "></path></clipPath><g clip-path="url(#clip0x600001cb1760)"><image xlink:href="../../63FDE3F6-E1E4-4BEC-8BAE-FAEF5D63F8B5/assets/5E4566264A74C6095FF35EF038105319.png" width="364.00" height="240.00" transform="matrix(2.07, 0.00, -0.00, -2.07, 362.0, 563.0)"></image></g></g><path d="M 0.0 0.0 L 0.0 497.2 L 421.9 497.2 L 421.9 0.0 L 0.0 0.0 Z M 0.0 0.0 " fill="none" stroke="#F2F6F5" stroke-width="1.00" transform="matrix(1.00, 0.00, 0.00, -1.00, 528.1, 563.3)"></path><g><clipPath id="clip0x600001cb1a00"><path d="M 695.3 469.4 L 701.0 451.0 L 719.4 451.0 L 704.5 439.3 L 710.2 420.6 L 695.3 432.1 L 680.4 420.6 L 686.1 439.3 L 671.2 451.0 L 689.6 451.0 Z M 695.3 469.4 "></path></clipPath><g clip-path="url(#clip0x600001cb1a00)"><image xlink:href="../../63FDE3F6-E1E4-4BEC-8BAE-FAEF5D63F8B5/assets/9F2955F7E42211BA7B051F7D1B25CF9F.png" width="256.00" height="256.00" transform="matrix(0.50, 0.00, -0.00, -0.50, 671.2, 469.4)"></image></g></g><g><clipPath id="clip0x608000ea35a0"><path d="M 704.9 306.9 L 710.6 288.0 L 729.0 288.0 L 714.1 276.7 L 719.8 258.1 L 704.9 269.6 L 690.0 258.1 L 695.7 276.7 L 680.8 288.0 L 699.2 288.0 Z M 704.9 306.9 "></path></clipPath><g clip-path="url(#clip0x608000ea35a0)"><image xlink:href="../../63FDE3F6-E1E4-4BEC-8BAE-FAEF5D63F8B5/assets/9F2955F7E42211BA7B051F7D1B25CF9F.png" width="256.00" height="256.00" transform="matrix(0.50, 0.00, -0.00, -0.50, 680.8, 306.9)"></image></g></g><g><clipPath id="clip0x6080010ac960"><path d="M 831.4 168.4 L 837.1 150.0 L 855.5 150.0 L 840.6 138.3 L 846.3 119.7 L 831.4 131.2 L 816.5 119.7 L 822.2 138.3 L 807.3 150.0 L 825.7 150.0 Z M 831.4 168.4 "></path></clipPath><g clip-path="url(#clip0x6080010ac960)"><image xlink:href="../../63FDE3F6-E1E4-4BEC-8BAE-FAEF5D63F8B5/assets/9F2955F7E42211BA7B051F7D1B25CF9F.png" width="256.00" height="256.00" transform="matrix(0.50, 0.00, -0.00, -0.50, 807.3, 168.4)"></image></g></g><g><clipPath id="clip0x608000eaefa0"><path d="M 861.4 339.0 L 867.1 320.0 L 885.5 320.0 L 870.6 308.9 L 876.3 290.3 L 861.4 301.8 L 846.5 290.3 L 852.2 308.9 L 837.3 320.0 L 855.7 320.0 Z M 861.4 339.0 "></path></clipPath><g clip-path="url(#clip0x608000eaefa0)"><image xlink:href="../../63FDE3F6-E1E4-4BEC-8BAE-FAEF5D63F8B5/assets/9F2955F7E42211BA7B051F7D1B25CF9F.png" width="256.00" height="256.00" transform="matrix(0.50, 0.00, -0.00, -0.50, 837.3, 339.0)"></image></g></g><g><clipPath id="clip0x600001cb1a60"><path d="M 601.0 339.0 L 606.7 320.0 L 625.1 320.0 L 610.2 308.9 L 615.9 290.3 L 601.0 301.8 L 586.1 290.3 L 591.8 308.9 L 576.9 320.0 L 595.3 320.0 Z M 601.0 339.0 "></path></clipPath><g clip-path="url(#clip0x600001cb1a60)"><image xlink:href="../../63FDE3F6-E1E4-4BEC-8BAE-FAEF5D63F8B5/assets/9F2955F7E42211BA7B051F7D1B25CF9F.png" width="256.00" height="256.00" transform="matrix(0.50, 0.00, -0.00, -0.50, 576.9, 339.0)"></image></g></g><g><clipPath id="clip0x600001cb1d60"><path d="M 808.8 433.2 L 814.5 415.0 L 832.9 415.0 L 818.0 403.1 L 823.7 384.5 L 808.8 396.0 L 793.9 384.5 L 799.6 403.1 L 784.7 415.0 L 803.1 415.0 Z M 808.8 433.2 "></path></clipPath><g clip-path="url(#clip0x600001cb1d60)"><image xlink:href="../../63FDE3F6-E1E4-4BEC-8BAE-FAEF5D63F8B5/assets/9F2955F7E42211BA7B051F7D1B25CF9F.png" width="256.00" height="256.00" transform="matrix(0.50, 0.00, -0.00, -0.50, 784.7, 433.2)"></image></g></g><g><clipPath id="clip0x608000ea9180"><path d="M 808.8 292.9 L 814.5 274.0 L 832.9 274.0 L 818.0 262.8 L 823.7 244.1 L 808.8 255.6 L 793.9 244.1 L 799.6 262.8 L 784.7 274.0 L 803.1 274.0 Z M 808.8 292.9 "></path></clipPath><g clip-path="url(#clip0x608000ea9180)"><image xlink:href="../../63FDE3F6-E1E4-4BEC-8BAE-FAEF5D63F8B5/assets/9F2955F7E42211BA7B051F7D1B25CF9F.png" width="256.00" height="256.00" transform="matrix(0.50, 0.00, -0.00, -0.50, 784.7, 292.9)"></image></g></g><g><clipPath id="clip0x608000eb9380"><path d="M 709.6 146.4 L 715.3 128.0 L 733.7 128.0 L 718.8 116.2 L 724.5 97.6 L 709.6 109.1 L 694.7 97.6 L 700.4 116.2 L 685.5 128.0 L 703.9 128.0 Z M 709.6 146.4 "></path></clipPath><g clip-path="url(#clip0x608000eb9380)"><image xlink:href="../../63FDE3F6-E1E4-4BEC-8BAE-FAEF5D63F8B5/assets/9F2955F7E42211BA7B051F7D1B25CF9F.png" width="256.00" height="256.00" transform="matrix(0.50, 0.00, -0.00, -0.50, 685.5, 146.4)"></image></g></g><g><clipPath id="clip0x600001cb1d00"><path d="M 903.0 64.0 L 1023.0 64.0 L 1023.0 21.0 L 903.0 21.0 Z M 902.7 63.8 "></path></clipPath><g clip-path="url(#clip0x600001cb1d00)"><image xlink:href="../../63FDE3F6-E1E4-4BEC-8BAE-FAEF5D63F8B5/assets/AA11D87778E0CF66586EA3691EB19FEB.png" width="371.00" height="136.00" transform="matrix(0.32, 0.00, -0.00, -0.32, 903.0, 64.0)"></image></g></g><path d="M -0.1 0.5 L -0.1 90.5 " fill="none" stroke="#FEFFFE" stroke-width="2.00" transform="matrix(1.00, 0.00, 0.00, -1.00, 182.1, 458.5)"></path><text xml:space="preserve" font-family="HelveticaNeue,Helvetica Neue" font-size="19.2" fill="#FEFFFF" transform="matrix(1.00, 0.00, -0.00, -1.00, 19.0, 35.3)">D</text><text xml:space="preserve" font-family="HelveticaNeue,Helvetica Neue" font-size="19.2" fill="#FEFFFF" transform="matrix(1.00, 0.00, -0.00, -1.00, 32.5, 35.3)">a</text><text xml:space="preserve" font-family="HelveticaNeue,Helvetica Neue" font-size="19.2" fill="#FEFFFF" transform="matrix(1.00, 0.00, -0.00, -1.00, 42.8, 35.3)">n</text><text xml:space="preserve" font-family="HelveticaNeue,Helvetica Neue" font-size="19.2" fill="#FEFFFF" transform="matrix(1.00, 0.00, -0.00, -1.00, 53.5, 35.3)">i</text><text xml:space="preserve" font-family="HelveticaNeue,Helvetica Neue" font-size="19.2" fill="#FEFFFF" transform="matrix(1.00, 0.00, -0.00, -1.00, 57.8, 35.3)">e</text><text xml:space="preserve" font-family="HelveticaNeue,Helvetica Neue" font-size="19.2" fill="#FEFFFF" transform="matrix(1.00, 0.00, -0.00, -1.00, 68.1, 35.3)">l</text><text xml:space="preserve" font-family="HelveticaNeue,Helvetica Neue" font-size="19.2" fill="#FEFFFF" transform="matrix(1.00, 0.00, -0.00, -1.00, 72.3, 35.3)"> </text><text xml:space="preserve" font-family="HelveticaNeue,Helvetica Neue" font-size="19.2" fill="#FEFFFF" transform="matrix(1.00, 0.00, -0.00, -1.00, 77.7, 35.3)">B</text><text xml:space="preserve" font-family="HelveticaNeue,Helvetica Neue" font-size="19.2" fill="#FEFFFF" transform="matrix(1.00, 0.00, -0.00, -1.00, 90.8, 35.3)">l</text><text xml:space="preserve" font-family="HelveticaNeue,Helvetica Neue" font-size="19.2" fill="#FEFFFF" transform="matrix(1.00, 0.00, -0.00, -1.00, 95.1, 35.3)">a</text><text xml:space="preserve" font-family="HelveticaNeue,Helvetica Neue" font-size="19.2" fill="#FEFFFF" transform="matrix(1.00, 0.00, -0.00, -1.00, 105.4, 35.3)">z</text><text xml:space="preserve" font-family="HelveticaNeue,Helvetica Neue" font-size="19.2" fill="#FEFFFF" transform="matrix(1.00, 0.00, -0.00, -1.00, 114.6, 35.3)">e</text><text xml:space="preserve" font-family="HelveticaNeue,Helvetica Neue" font-size="19.2" fill="#FEFFFF" transform="matrix(1.00, 0.00, -0.00, -1.00, 124.9, 35.3)">v</text><text xml:space="preserve" font-family="HelveticaNeue,Helvetica Neue" font-size="19.2" fill="#FEFFFF" transform="matrix(1.00, 0.00, -0.00, -1.00, 134.5, 35.3)">s</text><text xml:space="preserve" font-family="HelveticaNeue,Helvetica Neue" font-size="19.2" fill="#FEFFFF" transform="matrix(1.00, 0.00, -0.00, -1.00, 144.1, 35.3)">k</text><text xml:space="preserve" font-family="HelveticaNeue,Helvetica Neue" font-size="19.2" fill="#FEFFFF" transform="matrix(1.00, 0.00, -0.00, -1.00, 154.1, 35.3)">i</text><path d="M 0.5 0.2 L 422.5 0.2 L 422.5 490.2 L 0.5 490.2 Z M 0.0 0.0 " fill="none" stroke="#000000" stroke-width="1.00" transform="matrix(1.00, 0.00, 0.00, -1.00, 525.0, 561.7)"></path><path d="M 0.3 -0.3 L 590.3 -0.3 L 593.3 -0.3 " fill="none" stroke="#4286DC" stroke-width="5.00" transform="matrix(1.00, 0.00, 0.00, -1.00, 65.7, 433.2)"></path><path d="M 656.5 423.3 L 676.9 433.5 L 656.5 443.7 Z M 656.5 423.3 " fill="#4286DC"></path><text xml:space="preserve" font-family="HelveticaNeue,Helvetica Neue" font-size="36.0" fill="#4286DC" transform="matrix(1.00, 0.00, -0.00, -1.00, 67.4, 525.7)">k</text><text xml:space="preserve" font-family="HelveticaNeue,Helvetica Neue" font-size="36.0" fill="#4286DC" transform="matrix(1.00, 0.00, -0.00, -1.00, 86.1, 525.7)">N</text><text xml:space="preserve" font-family="HelveticaNeue,Helvetica Neue" font-size="36.0" fill="#4286DC" transform="matrix(1.00, 0.00, -0.00, -1.00, 112.1, 525.7)">N</text><text xml:space="preserve" font-family="HelveticaNeue,Helvetica Neue" font-size="36.0" fill="#4286DC" transform="matrix(1.00, 0.00, -0.00, -1.00, 138.1, 525.7)">:</text><text xml:space="preserve" font-family="HelveticaNeue,Helvetica Neue" font-size="36.0" fill="#4286DC" transform="matrix(1.00, 0.00, -0.00, -1.00, 148.1, 525.7)"> </text><text xml:space="preserve" font-family="HelveticaNeue,Helvetica Neue" font-size="36.0" fill="#4286DC" transform="matrix(1.00, 0.00, -0.00, -1.00, 158.1, 525.7)">W</text><text xml:space="preserve" font-family="HelveticaNeue,Helvetica Neue" font-size="36.0" fill="#4286DC" transform="matrix(1.00, 0.00, -0.00, -1.00, 191.4, 525.7)">h</text><text xml:space="preserve" font-family="HelveticaNeue,Helvetica Neue" font-size="36.0" fill="#4286DC" transform="matrix(1.00, 0.00, -0.00, -1.00, 211.4, 525.7)">i</text><text xml:space="preserve" font-family="HelveticaNeue,Helvetica Neue" font-size="36.0" fill="#4286DC" transform="matrix(1.00, 0.00, -0.00, -1.00, 219.4, 525.7)">c</text><text xml:space="preserve" font-family="HelveticaNeue,Helvetica Neue" font-size="36.0" fill="#4286DC" transform="matrix(1.00, 0.00, -0.00, -1.00, 238.8, 525.7)">h</text><text xml:space="preserve" font-family="HelveticaNeue,Helvetica Neue" font-size="36.0" fill="#4286DC" transform="matrix(1.00, 0.00, -0.00, -1.00, 258.8, 525.7)"> </text><text xml:space="preserve" font-family="HelveticaNeue,Helvetica Neue" font-size="36.0" fill="#4286DC" transform="matrix(1.00, 0.00, -0.00, -1.00, 268.8, 525.7)">c</text><text xml:space="preserve" font-family="HelveticaNeue,Helvetica Neue" font-size="36.0" fill="#4286DC" transform="matrix(1.00, 0.00, -0.00, -1.00, 288.1, 525.7)">l</text><text xml:space="preserve" font-family="HelveticaNeue,Helvetica Neue" font-size="36.0" fill="#4286DC" transform="matrix(1.00, 0.00, -0.00, -1.00, 296.1, 525.7)">a</text><text xml:space="preserve" font-family="HelveticaNeue,Helvetica Neue" font-size="36.0" fill="#4286DC" transform="matrix(1.00, 0.00, -0.00, -1.00, 315.4, 525.7)">s</text><text xml:space="preserve" font-family="HelveticaNeue,Helvetica Neue" font-size="36.0" fill="#4286DC" transform="matrix(1.00, 0.00, -0.00, -1.00, 333.4, 525.7)">s</text><text xml:space="preserve" font-family="HelveticaNeue,Helvetica Neue" font-size="36.0" fill="#4286DC" transform="matrix(1.00, 0.00, -0.00, -1.00, 351.4, 525.7)"> </text><text xml:space="preserve" font-family="HelveticaNeue,Helvetica Neue" font-size="36.0" fill="#4286DC" transform="matrix(1.00, 0.00, -0.00, -1.00, 361.5, 525.7)">d</text><text xml:space="preserve" font-family="HelveticaNeue,Helvetica Neue" font-size="36.0" fill="#4286DC" transform="matrix(1.00, 0.00, -0.00, -1.00, 382.8, 525.7)">o</text><text xml:space="preserve" font-family="HelveticaNeue,Helvetica Neue" font-size="36.0" fill="#4286DC" transform="matrix(1.00, 0.00, -0.00, -1.00, 403.5, 525.7)">
</text><text xml:space="preserve" font-family="HelveticaNeue,Helvetica Neue" font-size="36.0" fill="#4286DC" transform="matrix(1.00, 0.00, -0.00, -1.00, 67.4, 476.7)">t</text><text xml:space="preserve" font-family="HelveticaNeue,Helvetica Neue" font-size="36.0" fill="#4286DC" transform="matrix(1.00, 0.00, -0.00, -1.00, 78.8, 476.7)">h</text><text xml:space="preserve" font-family="HelveticaNeue,Helvetica Neue" font-size="36.0" fill="#4286DC" transform="matrix(1.00, 0.00, -0.00, -1.00, 98.8, 476.7)">e</text><text xml:space="preserve" font-family="HelveticaNeue,Helvetica Neue" font-size="36.0" fill="#4286DC" transform="matrix(1.00, 0.00, -0.00, -1.00, 118.1, 476.7)"> </text><text xml:space="preserve" font-family="HelveticaNeue,Helvetica Neue" font-size="36.0" fill="#4286DC" transform="matrix(1.00, 0.00, -0.00, -1.00, 128.1, 476.7)">g</text><text xml:space="preserve" font-family="HelveticaNeue,Helvetica Neue" font-size="36.0" fill="#4286DC" transform="matrix(1.00, 0.00, -0.00, -1.00, 148.8, 476.7)">o</text><text xml:space="preserve" font-family="HelveticaNeue,Helvetica Neue" font-size="36.0" fill="#4286DC" transform="matrix(1.00, 0.00, -0.00, -1.00, 169.4, 476.7)">l</text><text xml:space="preserve" font-family="HelveticaNeue,Helvetica Neue" font-size="36.0" fill="#4286DC" transform="matrix(1.00, 0.00, -0.00, -1.00, 177.4, 476.7)">d</text><text xml:space="preserve" font-family="HelveticaNeue,Helvetica Neue" font-size="36.0" fill="#4286DC" transform="matrix(1.00, 0.00, -0.00, -1.00, 198.8, 476.7)"> </text><text xml:space="preserve" font-family="HelveticaNeue,Helvetica Neue" font-size="36.0" fill="#4286DC" transform="matrix(1.00, 0.00, -0.00, -1.00, 208.8, 476.7)">s</text><text xml:space="preserve" font-family="HelveticaNeue,Helvetica Neue" font-size="36.0" fill="#4286DC" transform="matrix(1.00, 0.00, -0.00, -1.00, 226.8, 476.7)">t</text><text xml:space="preserve" font-family="HelveticaNeue,Helvetica Neue" font-size="36.0" fill="#4286DC" transform="matrix(1.00, 0.00, -0.00, -1.00, 238.1, 476.7)">a</text><text xml:space="preserve" font-family="HelveticaNeue,Helvetica Neue" font-size="36.0" fill="#4286DC" transform="matrix(1.00, 0.00, -0.00, -1.00, 257.5, 476.7)">r</text><text xml:space="preserve" font-family="HelveticaNeue,Helvetica Neue" font-size="36.0" fill="#4286DC" transform="matrix(1.00, 0.00, -0.00, -1.00, 269.4, 476.7)">s</text><text xml:space="preserve" font-family="HelveticaNeue,Helvetica Neue" font-size="36.0" fill="#4286DC" transform="matrix(1.00, 0.00, -0.00, -1.00, 287.4, 476.7)"> </text><text xml:space="preserve" font-family="HelveticaNeue,Helvetica Neue" font-size="36.0" fill="#4286DC" transform="matrix(1.00, 0.00, -0.00, -1.00, 297.5, 476.7)">b</text><text xml:space="preserve" font-family="HelveticaNeue,Helvetica Neue" font-size="36.0" fill="#4286DC" transform="matrix(1.00, 0.00, -0.00, -1.00, 318.8, 476.7)">e</text><text xml:space="preserve" font-family="HelveticaNeue,Helvetica Neue" font-size="36.0" fill="#4286DC" transform="matrix(1.00, 0.00, -0.00, -1.00, 338.1, 476.7)">l</text><text xml:space="preserve" font-family="HelveticaNeue,Helvetica Neue" font-size="36.0" fill="#4286DC" transform="matrix(1.00, 0.00, -0.00, -1.00, 346.1, 476.7)">o</text><text xml:space="preserve" font-family="HelveticaNeue,Helvetica Neue" font-size="36.0" fill="#4286DC" transform="matrix(1.00, 0.00, -0.00, -1.00, 366.8, 476.7)">n</text><text xml:space="preserve" font-family="HelveticaNeue,Helvetica Neue" font-size="36.0" fill="#4286DC" transform="matrix(1.00, 0.00, -0.00, -1.00, 386.8, 476.7)">g</text><text xml:space="preserve" font-family="HelveticaNeue,Helvetica Neue" font-size="36.0" fill="#4286DC" transform="matrix(1.00, 0.00, -0.00, -1.00, 407.5, 476.7)"> </text><text xml:space="preserve" font-family="HelveticaNeue,Helvetica Neue" font-size="36.0" fill="#4286DC" transform="matrix(1.00, 0.00, -0.00, -1.00, 417.5, 476.7)">t</text><text xml:space="preserve" font-family="HelveticaNeue,Helvetica Neue" font-size="36.0" fill="#4286DC" transform="matrix(1.00, 0.00, -0.00, -1.00, 428.8, 476.7)">o</text><text xml:space="preserve" font-family="HelveticaNeue,Helvetica Neue" font-size="36.0" fill="#4286DC" transform="matrix(1.00, 0.00, -0.00, -1.00, 449.5, 476.7)">?</text><text xml:space="preserve" font-family="HelveticaNeue,Helvetica Neue" font-size="21.0" fill="#FE6246" transform="matrix(1.00, 0.00, -0.00, -1.00, 67.9, 377.8)">•</text><text xml:space="preserve" font-family="HelveticaNeue,Helvetica Neue" font-size="28.0" fill="#FE6246" transform="matrix(1.00, 0.00, -0.00, -1.00, 94.9, 374.9)">L</text><text xml:space="preserve" font-family="HelveticaNeue,Helvetica Neue" font-size="28.0" fill="#FE6246" transform="matrix(1.00, 0.00, -0.00, -1.00, 110.4, 374.9)">o</text><text xml:space="preserve" font-family="HelveticaNeue,Helvetica Neue" font-size="28.0" fill="#FE6246" transform="matrix(1.00, 0.00, -0.00, -1.00, 126.5, 374.9)">o</text><text xml:space="preserve" font-family="HelveticaNeue,Helvetica Neue" font-size="28.0" fill="#FE6246" transform="matrix(1.00, 0.00, -0.00, -1.00, 142.6, 374.9)">k</text><text xml:space="preserve" font-family="HelveticaNeue,Helvetica Neue" font-size="28.0" fill="#FE6246" transform="matrix(1.00, 0.00, -0.00, -1.00, 157.1, 374.9)"> </text><text xml:space="preserve" font-family="HelveticaNeue,Helvetica Neue" font-size="28.0" fill="#FE6246" transform="matrix(1.00, 0.00, -0.00, -1.00, 164.9, 374.9)">a</text><text xml:space="preserve" font-family="HelveticaNeue,Helvetica Neue" font-size="28.0" fill="#FE6246" transform="matrix(1.00, 0.00, -0.00, -1.00, 179.9, 374.9)">t</text><text xml:space="preserve" font-family="HelveticaNeue,Helvetica Neue" font-size="28.0" fill="#FE6246" transform="matrix(1.00, 0.00, -0.00, -1.00, 188.7, 374.9)"> </text><text xml:space="preserve" font-family="HelveticaNeue,Helvetica Neue" font-size="28.0" fill="#FE6246" transform="matrix(1.00, 0.00, -0.00, -1.00, 196.5, 374.9)">t</text><text xml:space="preserve" font-family="HelveticaNeue,Helvetica Neue" font-size="28.0" fill="#FE6246" transform="matrix(1.00, 0.00, -0.00, -1.00, 205.4, 374.9)">h</text><text xml:space="preserve" font-family="HelveticaNeue,Helvetica Neue" font-size="28.0" fill="#FE6246" transform="matrix(1.00, 0.00, -0.00, -1.00, 220.9, 374.9)">e</text><text xml:space="preserve" font-family="HelveticaNeue,Helvetica Neue" font-size="28.0" fill="#FE6246" transform="matrix(1.00, 0.00, -0.00, -1.00, 236.0, 374.9)"> </text><text xml:space="preserve" font-family="HelveticaNeue,Helvetica Neue" font-size="28.0" fill="#FE6246" transform="matrix(1.00, 0.00, -0.00, -1.00, 243.7, 374.9)">k</text><text xml:space="preserve" font-family="HelveticaNeue,Helvetica Neue" font-size="28.0" fill="#FE6246" transform="matrix(1.00, 0.00, -0.00, -1.00, 258.3, 374.9)">-</text><text xml:space="preserve" font-family="HelveticaNeue,Helvetica Neue" font-size="28.0" fill="#FE6246" transform="matrix(1.00, 0.00, -0.00, -1.00, 269.2, 374.9)">n</text><text xml:space="preserve" font-family="HelveticaNeue,Helvetica Neue" font-size="28.0" fill="#FE6246" transform="matrix(1.00, 0.00, -0.00, -1.00, 284.7, 374.9)">e</text><text xml:space="preserve" font-family="HelveticaNeue,Helvetica Neue" font-size="28.0" fill="#FE6246" transform="matrix(1.00, 0.00, -0.00, -1.00, 299.8, 374.9)">a</text><text xml:space="preserve" font-family="HelveticaNeue,Helvetica Neue" font-size="28.0" fill="#FE6246" transform="matrix(1.00, 0.00, -0.00, -1.00, 314.8, 374.9)">r</text><text xml:space="preserve" font-family="HelveticaNeue,Helvetica Neue" font-size="28.0" fill="#FE6246" transform="matrix(1.00, 0.00, -0.00, -1.00, 323.6, 374.9)">e</text><text xml:space="preserve" font-family="HelveticaNeue,Helvetica Neue" font-size="28.0" fill="#FE6246" transform="matrix(1.00, 0.00, -0.00, -1.00, 338.7, 374.9)">s</text><text xml:space="preserve" font-family="HelveticaNeue,Helvetica Neue" font-size="28.0" fill="#FE6246" transform="matrix(1.00, 0.00, -0.00, -1.00, 352.7, 374.9)">t</text><text xml:space="preserve" font-family="HelveticaNeue,Helvetica Neue" font-size="28.0" fill="#FE6246" transform="matrix(1.00, 0.00, -0.00, -1.00, 361.5, 374.9)"> </text><text xml:space="preserve" font-family="HelveticaNeue,Helvetica Neue" font-size="28.0" fill="#FE6246" transform="matrix(1.00, 0.00, -0.00, -1.00, 94.9, 340.9)">n</text><text xml:space="preserve" font-family="HelveticaNeue,Helvetica Neue" font-size="28.0" fill="#FE6246" transform="matrix(1.00, 0.00, -0.00, -1.00, 110.4, 340.9)">e</text><text xml:space="preserve" font-family="HelveticaNeue,Helvetica Neue" font-size="28.0" fill="#FE6246" transform="matrix(1.00, 0.00, -0.00, -1.00, 125.5, 340.9)">i</text><text xml:space="preserve" font-family="HelveticaNeue,Helvetica Neue" font-size="28.0" fill="#FE6246" transform="matrix(1.00, 0.00, -0.00, -1.00, 131.7, 340.9)">g</text><text xml:space="preserve" font-family="HelveticaNeue,Helvetica Neue" font-size="28.0" fill="#FE6246" transform="matrix(1.00, 0.00, -0.00, -1.00, 147.8, 340.9)">h</text><text xml:space="preserve" font-family="HelveticaNeue,Helvetica Neue" font-size="28.0" fill="#FE6246" transform="matrix(1.00, 0.00, -0.00, -1.00, 163.3, 340.9)">b</text><text xml:space="preserve" font-family="HelveticaNeue,Helvetica Neue" font-size="28.0" fill="#FE6246" transform="matrix(1.00, 0.00, -0.00, -1.00, 179.9, 340.9)">o</text><text xml:space="preserve" font-family="HelveticaNeue,Helvetica Neue" font-size="28.0" fill="#FE6246" transform="matrix(1.00, 0.00, -0.00, -1.00, 196.0, 340.9)">r</text><text xml:space="preserve" font-family="HelveticaNeue,Helvetica Neue" font-size="28.0" fill="#FE6246" transform="matrix(1.00, 0.00, -0.00, -1.00, 205.3, 340.9)">s</text><text xml:space="preserve" font-family="HelveticaNeue,Helvetica Neue" font-size="28.0" fill="#FE6246" transform="matrix(1.00, 0.00, -0.00, -1.00, 219.3, 340.9)"> </text><text xml:space="preserve" font-family="HelveticaNeue,Helvetica Neue" font-size="28.0" fill="#FE6246" transform="matrix(1.00, 0.00, -0.00, -1.00, 227.1, 340.9)">(</text><text xml:space="preserve" font-family="HelveticaNeue,Helvetica Neue" font-size="28.0" fill="#FE6246" transform="matrix(1.00, 0.00, -0.00, -1.00, 234.4, 340.9)">k</text><text xml:space="preserve" font-family="HelveticaNeue,Helvetica Neue" font-size="28.0" fill="#FE6246" transform="matrix(1.00, 0.00, -0.00, -1.00, 248.9, 340.9)">N</text><text xml:space="preserve" font-family="HelveticaNeue,Helvetica Neue" font-size="28.0" fill="#FE6246" transform="matrix(1.00, 0.00, -0.00, -1.00, 269.1, 340.9)">N</text><text xml:space="preserve" font-family="HelveticaNeue,Helvetica Neue" font-size="28.0" fill="#FE6246" transform="matrix(1.00, 0.00, -0.00, -1.00, 289.3, 340.9)">)</text></g></svg>